<svg width="27" height="27" viewBox="0 0 27 27" fill="none" xmlns="http://www.w3.org/2000/svg">
<path d="M26.7801 7.48831C26.7027 7.37839 26.6 7.28868 26.4807 7.22672C26.3615 7.16477 26.229 7.13238 26.0946 7.1323H8.18769L6.8322 2.45792C6.30064 0.617282 5.03752 0.418579 4.51946 0.418579H0.905253C0.442008 0.418579 0.0673828 0.793626 0.0673828 1.25642C0.0673828 1.71922 0.44243 2.09424 0.905227 2.09424H4.51901C4.63334 2.09424 4.98223 2.09424 5.22019 2.91647L9.88318 20.0535C9.98443 20.415 10.3139 20.6647 10.6898 20.6647H22.0796C22.4331 20.6647 22.7486 20.4432 22.8681 20.1104L26.8826 8.25359C26.975 7.99667 26.9366 7.71064 26.7801 7.48831H26.7801ZM21.4899 18.9895H11.3257L8.65863 8.80841H24.9033L21.4899 18.9895ZM19.8282 22.3628C18.663 22.3628 17.7188 23.307 17.7188 24.4722C17.7188 25.6374 18.663 26.5816 19.8282 26.5816C20.9934 26.5816 21.9376 25.6374 21.9376 24.4722C21.9376 23.307 20.9934 22.3628 19.8282 22.3628ZM12.2344 22.3628C11.0692 22.3628 10.1251 23.307 10.1251 24.4722C10.1251 25.6374 11.0692 26.5816 12.2344 26.5816C13.3997 26.5816 14.3438 25.6374 14.3438 24.4722C14.3438 23.307 13.3997 22.3628 12.2344 22.3628Z" fill="#EDF5F1"/>
</svg>
